<?xml version="1.0" encoding="utf-8"?>
<!-- Generator: Adobe Illustrator 15.0.2, SVG Export Plug-In . SVG Version: 6.00 Build 0)  -->
<!DOCTYPE svg PUBLIC "-//W3C//DTD SVG 1.1//EN" "http://www.w3.org/Graphics/SVG/1.1/DTD/svg11.dtd" [
	<!ENTITY ns_flows "http://ns.adobe.com/Flows/1.0/">
	<!ENTITY ns_extend "http://ns.adobe.com/Extensibility/1.0/">
	<!ENTITY ns_ai "http://ns.adobe.com/AdobeIllustrator/10.0/">
	<!ENTITY ns_graphs "http://ns.adobe.com/Graphs/1.0/">
	<!ENTITY ns_vars "http://ns.adobe.com/Variables/1.0/">
	<!ENTITY ns_imrep "http://ns.adobe.com/ImageReplacement/1.0/">
	<!ENTITY ns_sfw "http://ns.adobe.com/SaveForWeb/1.0/">
	<!ENTITY ns_custom "http://ns.adobe.com/GenericCustomNamespace/1.0/">
	<!ENTITY ns_adobe_xpath "http://ns.adobe.com/XPath/1.0/">
]>
<svg version="1.1"
	 xmlns:x="&ns_extend;" xmlns:i="&ns_ai;" xmlns:graph="&ns_graphs;" i:viewOrigin="381 -348" i:rulerOrigin="-381 408" i:pageBounds="381 -348 441 -408"
	 xmlns="http://www.w3.org/2000/svg" xmlns:xlink="http://www.w3.org/1999/xlink" xmlns:a="http://ns.adobe.com/AdobeSVGViewerExtensions/3.0/"
	 x="0px" y="0px" width="60px" height="60px" viewBox="0 0 60 60" enable-background="new 0 0 60 60" xml:space="preserve">
<metadata>
	<variableSets  xmlns="http://ns.adobe.com/Variables/1.0/">
		<variableSet  locked="none" varSetName="binding1">
			<variables></variables>
			<v:sampleDataSets  xmlns="http://ns.adobe.com/GenericCustomNamespace/1.0/" xmlns:v="http://ns.adobe.com/Variables/1.0/">
				</v:sampleDataSets>
		</variableSet>
	</variableSets>
</metadata>
<g id="CIRCLE_BG" i:layer="yes" i:dimmedPercent="50" i:rgbTrio="#000055550000">
	<g id="CIRCLE_2_">
		<circle id="circle_2_" i:knockout="Off" fill="#FFFFFF" cx="30" cy="30" r="30"/>
		<path id="circle_1_" i:knockout="Off" fill="#DDDDDD" d="M30,5c13.785,0,25,11.215,25,25S43.785,55,30,55S5,43.785,5,30
			S16.215,5,30,5 M30,0C13.432,0,0,13.432,0,30s13.432,30,30,30s30-13.432,30-30S46.568,0,30,0L30,0z"/>
	</g>
</g>
<g id="Layer_1" i:knockout="Off" i:layer="yes" i:dimmedPercent="50" i:rgbTrio="#4F008000FFFF">
	<g>
		<path i:knockout="Off" fill="#57B0C6" d="M26.136,45c0.589,1.566,2.091,2.688,3.864,2.688s3.272-1.121,3.863-2.687
			c-1.222,0.094-2.51,0.152-3.863,0.152C28.646,45.153,27.359,45.094,26.136,45"/>
		<path i:knockout="Off" fill="#57B0C6" d="M44.927,37.433h-0.549l-3.655-4.387l-1.951-10.233h-0.018
			c-0.594-3.583-3.334-6.423-6.852-7.195c0.006-0.015,0.019-0.027,0.023-0.042l0.537-1.609c0.254-0.765-0.195-1.389-0.999-1.389
			h-2.924c-0.804,0-1.255,0.624-1.001,1.389l0.538,1.609c0.004,0.015,0.017,0.027,0.022,0.042c-3.518,0.772-6.258,3.612-6.852,7.195
			h-0.018l-1.95,10.233l-3.654,4.387h-0.549c-0.804,0-1.462,0.658-1.462,1.462s0.614,1.697,1.365,1.985c0,0,6.251,2.4,15.023,2.4
			c8.772,0,15.023-2.4,15.023-2.4c0.751-0.288,1.365-1.182,1.365-1.985S45.73,37.433,44.927,37.433"/>
		<path i:knockout="Off" fill="#57B0C6" d="M44.927,37.433h-0.549l-3.655-4.387l-1.951-10.233h-0.018
			c-0.594-3.583-3.334-6.423-6.852-7.195c0.006-0.015,0.019-0.027,0.023-0.042l0.537-1.609c0.254-0.765-0.195-1.389-0.999-1.389
			h-2.924c-0.804,0-1.255,0.624-1.001,1.389l0.538,1.609c0.004,0.015,0.017,0.027,0.022,0.042c-3.518,0.772-6.258,3.612-6.852,7.195
			h-0.018l-1.95,10.233l-3.654,4.387h-0.549c-0.804,0-1.462,0.658-1.462,1.462s0.614,1.697,1.365,1.985c0,0,6.251,2.4,15.023,2.4
			c8.772,0,15.023-2.4,15.023-2.4c0.751-0.288,1.365-1.182,1.365-1.985S45.73,37.433,44.927,37.433"/>
	</g>
</g>
</svg>
